# xmcd CD database file
#
# Track frame offsets:
#	151
#	20900
#	46369
#	63180
#	88503
#	106218
#	127139
#	150830
#	175851
#	193254
#	215881
#	240506
#	261385
#	294058
#	320281
#
# Disc length: 4619 seconds
#
# Revision: 1
# Processed by: cddbd v1.5.2PL0 Copyright (c) Steve Scherf et al.
# Submitted via: CDex 1.51
#
DISCID=d312090f
DTITLE=Yanni - 20 years best choice - 1
DYEAR=1900
DGENRE=New Age
TTITLE0=Rites of Fassage
TTITLE1=For All Seasons
TTITLE2=The Promise
TTITLE3=Rainmaker
TTITLE4=Written On The Wind
TTITLE5=Playing By Heart
TTITLE6=At First Sight
TTITLE7=Tribal Dream
TTITLE8=Almost A Whisper
TTITLE9=Never Too Late
TTITLE10=Play Time
TTITLE11=Liveri (Jiva-erl)
TTITLE12=Waltz in 7/8
TTITLE13=Midnight Hymn
TTITLE14=If I Could Tell You
EXTD=
EXTT0=
EXTT1=
EXTT2=
EXTT3=
EXTT4=
EXTT5=
EXTT6=
EXTT7=
EXTT8=
EXTT9=
EXTT10=
EXTT11=
EXTT12=
EXTT13=
EXTT14=
PLAYORDER=
